# xmcd
#
# Track frame offsets:
#	150
#	6380
#	12830
#	19277
#	25727
#	32095
#	38545
#	44362
#	50812
#	57712
#	66112
#	74137
#	80585
#	86640
#	94575
#	103350
#	111000
#	120272
#	126055
#	132805
#	139255
#	146530
#	154930
#	161830
#	166455
#	172885
#	181285
#	189310
#	195770
#	202220
#	210620
#	217067
#	223282
#	229730
#	235755
#	242202
#	249852
#	258252
#	261402
#	268302
#	276702
#	283527
#	292302
#	300702
#	310602
#	317502
#	323652
#	329277
#	336177
#	343115
#
# Disc length: 4685 seconds
#
# Revision: 1
# Processed by: cddbd v1.5.1PL0 Copyright (c) Steve Scherf et al.
# Submitted via: CDex 1.50Beta5
#
DISCID=03124b32
DTITLE=Various Artist - JVC World Sounds Best100 [CD1]
DYEAR=2000
DGENRE=World
TTITLE0=グロズダンカ
TTITLE1=ポレナラ・エ・トドラ
TTITLE2=デヴォイコ・マリ・フバヴァ
TTITLE3=ザヴィロ・セ・ホロ
TTITLE4=大アンサンブルによるロドブのシェイタ
TTITLE5=リレ
TTITLE6=ガレカフリ・ムグザヴルリ
TTITLE7=ディアンベゴ
TTITLE8=賛歌：全ての救い主であるキリストよ
TTITLE9=ウン・ドゥーロ・レ・ディ・アル・バルケーロ
TTITLE10=ひばり
TTITLE11=アザーン
TTITLE12=マカーム・イェギャー
TTITLE13=マーフール「我は酒場の片隅に庵をむすび」
TTITLE14=ナミー・ダーナム
TTITLE15=アッラー・フー（彼こそアッラー）
TTITLE16=ラーガ：シャンカラ
TTITLE17=ラーガ：バーゲシュリ
TTITLE18=ラーガ：ラリタードワニ（ガット）
TTITLE19=ラーガ：マールワー
TTITLE20=ドゥルパド（ラーガムールタニ）
TTITLE21=カヤール（ラーガ：ナト・バイラブ）
TTITLE22=シルヘットの歌
TTITLE23=ターナム
TTITLE24=ニンネナミティナイヤ
TTITLE25=アラファ
TTITLE26=ガラ2000
TTITLE27=ゴンダール・グジャム
TTITLE28=カナ・クムボ
TTITLE29=ケレファ
TTITLE30=おばさんたちの日常生活の踊り
TTITLE31=仮面祭　シーン２
TTITLE32=夜明け
TTITLE33=クコンガ・ポイント　昼のポリフォニー
TTITLE34=カムランダ
TTITLE35=ルクンツィ
TTITLE36=ミフォハザ・ラベトリマソ
TTITLE37=パン・フォー・カーニバル
TTITLE38=パロミタ・ブランカ（白い鳩）
TTITLE39=ブグドゥラ・ブリトゥ（黒い亀）
TTITLE40=アルマ・ジャネーラ（平原児の魂）
TTITLE41=カルナバル
TTITLE42=ラ・チャトーナ〜エル・ウアチナンゴ
TTITLE43=コンドルは飛んで行く
TTITLE44=カントゥ（チャリ）
TTITLE45=のど遊び歌〜イハン
TTITLE46=サンライズ・ソング
TTITLE47=グレート・チェンジ・イン・ミー
TTITLE48=ノホ・アナ・ラカ
TTITLE49=クウホメ（私の家）
EXTD=
EXTT0=
EXTT1=
EXTT2=
EXTT3=
EXTT4=
EXTT5=
EXTT6=
EXTT7=
EXTT8=
EXTT9=
EXTT10=
EXTT11=
EXTT12=
EXTT13=
EXTT14=
EXTT15=
EXTT16=
EXTT17=
EXTT18=
EXTT19=
EXTT20=
EXTT21=
EXTT22=
EXTT23=
EXTT24=
EXTT25=
EXTT26=
EXTT27=
EXTT28=
EXTT29=
EXTT30=
EXTT31=
EXTT32=
EXTT33=
EXTT34=
EXTT35=
EXTT36=
EXTT37=
EXTT38=
EXTT39=
EXTT40=
EXTT41=
EXTT42=
EXTT43=
EXTT44=
EXTT45=
EXTT46=
EXTT47=
EXTT48=
EXTT49=
PLAYORDER=
